<?xml version="1.0" encoding="UTF-8"?>
<svg version="1.1" xmlns="http://www.w3.org/2000/svg" width="2000" height="2000">
<path d="M0 0 C660 0 1320 0 2000 0 C2000 660 2000 1320 2000 2000 C1340 2000 680 2000 0 2000 C0 1340 0 680 0 0 Z " fill="#FCEFE7" transform="translate(0,0)"/>
<path d="M0 0 C1.02867187 0.2155957 1.02867187 0.2155957 2.078125 0.43554688 C62.67445744 13.17721755 123.52723208 41.40873298 172 80 C172.59651367 80.47469727 173.19302734 80.94939453 173.80761719 81.43847656 C198.32475343 101.01077559 198.32475343 101.01077559 209 112 C210.88541055 113.88541055 212.83311362 115.59995013 214.875 117.3125 C219.8742185 121.60885808 224.18361221 126.53191385 228.57666016 131.42822266 C229.95569094 132.95107003 231.35373683 134.45314412 232.76171875 135.94921875 C239.09426878 142.69611106 244.90315432 149.73341413 250.52587891 157.08007812 C252.08345679 159.10869562 253.65607957 161.12503255 255.23046875 163.140625 C268.71741489 180.48098432 280.3408854 198.90691212 291.1875 218 C291.76769897 219.01501587 291.76769897 219.01501587 292.35961914 220.05053711 C295 224.75815041 295 224.75815041 295 227 C295.60658447 226.61368408 296.21316895 226.22736816 296.83813477 225.8293457 C344.21603081 195.73551752 393.93183935 172.18803981 449 160 C450.14178711 159.74621582 451.28357422 159.49243164 452.45996094 159.23095703 C483.33045953 152.50895377 513.71494377 149.63940423 545.3125 149.625 C546.46274658 149.62300598 547.61299316 149.62101196 548.7980957 149.61895752 C570.79691882 149.62328273 592.44739375 151.01022921 614.125 154.8125 C615.678046 155.07804354 617.23110613 155.34350442 618.78417969 155.60888672 C629.68975153 157.49487696 640.52436066 159.6347813 651.2644043 162.32006836 C653.35867078 162.84059778 655.45737134 163.34331681 657.55786133 163.83813477 C667.63870312 166.23855304 677.40266664 169.28650838 687.1875 172.6875 C687.95068542 172.95111328 688.71387085 173.21472656 689.50018311 173.48632812 C701.92171767 177.7869246 714.08048404 182.43996129 726 188 C726.97018066 188.44811035 727.94036133 188.8962207 728.93994141 189.35791016 C750.11796642 199.18071096 770.6882065 209.84714933 790 223 C790.79647949 223.53882813 791.59295898 224.07765625 792.41357422 224.6328125 C803.46028446 232.13284596 814.04969622 240.00678743 824.28808594 248.57617188 C826.72763276 250.60518457 829.21120704 252.57861111 831.6875 254.5625 C841.7293759 262.82967029 850.99484274 271.88928535 860.22033691 281.04510498 C861.22328786 282.04001215 862.22771423 283.03343465 863.23376465 284.02520752 C869.21389557 289.92941539 874.82653695 295.99751643 880.05444336 302.58691406 C881.89659753 304.87174927 883.81694281 307.03651961 885.8125 309.1875 C891.69189085 315.74214762 896.81527926 322.89393048 902 330 C902.4954834 330.67595215 902.9909668 331.3519043 903.50146484 332.04833984 C938.95554421 380.61188401 963.64581744 436.4527891 977 495 C977.18369141 495.7748877 977.36738281 496.54977539 977.55664062 497.34814453 C981.24689384 513.04554186 982.97001883 529.11524793 984.94921875 545.09765625 C985.04071198 545.83048828 985.1322052 546.56332031 985.22647095 547.31835938 C986.44639082 557.32769844 987.15198807 567.18489437 987.1328125 577.2734375 C987.13376923 578.40020905 987.13472595 579.52698059 987.13571167 580.68789673 C987.13638743 583.04925595 987.13457567 585.41061709 987.13037109 587.77197266 C987.12498392 591.38578426 987.1303521 594.9994733 987.13671875 598.61328125 C987.13605845 600.91666694 987.13477829 603.22005255 987.1328125 605.5234375 C987.13584885 607.13912125 987.13584885 607.13912125 987.13894653 608.78744507 C987.13579437 609.79264191 987.13264221 610.79783875 987.12939453 611.83349609 C987.12820114 613.15273575 987.12820114 613.15273575 987.12698364 614.49862671 C986.99554703 617.0877163 986.54979652 619.47002329 986 622 C985.85110035 623.63171977 985.73269953 625.26643336 985.640625 626.90234375 C983.87588178 654.60205181 979.78257337 683.43891309 971.0234375 709.88476562 C970.01567948 712.95227335 969.06386542 716.03186914 968.125 719.12109375 C955.3343732 760.75760133 937.45473099 800.65046034 912.55859375 836.51953125 C910.25936496 840.04467589 910.25936496 840.04467589 909 844 C910.32381741 846.56123182 911.60911934 848.58937177 913.3125 850.875 C914.25939256 852.21802467 915.20333503 853.56313344 916.14453125 854.91015625 C916.62615723 855.59223145 917.1077832 856.27430664 917.60400391 856.97705078 C921.38157493 862.45115947 924.66645647 868.24920857 928 874 C928.38091797 874.65210449 928.76183594 875.30420898 929.15429688 875.97607422 C951.38770793 914.23714806 967.25210036 955.87269461 977 999 C977.18900879 999.82806152 977.37801758 1000.65612305 977.57275391 1001.50927734 C984.84505968 1033.91603829 987.16146471 1066.93476366 987.1875 1100.0625 C987.18913147 1101.16780563 987.18913147 1101.16780563 987.1907959 1102.29544067 C987.18389176 1143.31004604 980.97877016 1185.68802215 967.81054688 1224.59082031 C967.20374536 1226.39440986 966.60788311 1228.20168626 966.01757812 1230.01074219 C954.43321396 1265.49689159 939.31447971 1299.5827368 919 1331 C917.99259766 1332.56621094 917.99259766 1332.56621094 916.96484375 1334.1640625 C915.01378378 1337.13672471 913.01802738 1340.07238728 911 1343 C910.57138672 1343.62696777 910.14277344 1344.25393555 909.70117188 1344.89990234 C902.29975075 1355.70093311 894.42101728 1365.97608209 886 1376 C885.48937012 1376.60972656 884.97874023 1377.21945312 884.45263672 1377.84765625 C869.27981958 1395.912624 853.22404833 1414.47031254 834.5703125 1428.98828125 C832.17616835 1430.86211748 829.87700277 1432.81926008 827.58398438 1434.81469727 C808.36594013 1451.47053308 786.91910102 1465.21818615 765 1478 C764.24847656 1478.43844238 763.49695312 1478.87688477 762.72265625 1479.32861328 C743.950438 1490.19960152 724.33778217 1499.45978007 704 1507 C703.39333496 1507.22492126 702.78666992 1507.44984253 702.16162109 1507.68157959 C678.0481759 1516.59887238 654.11297094 1524.09930861 628.73046875 1528.5234375 C625.8597367 1529.02448086 622.99259924 1529.54385164 620.125 1530.0625 C606.7883032 1532.42687964 593.50665419 1534.02646392 580 1535 C578.88705566 1535.08830078 577.77411133 1535.17660156 576.62744141 1535.26757812 C566.90393934 1535.99403927 557.24620976 1536.1617196 547.5 1536.125 C546.3173053 1536.12167664 546.3173053 1536.12167664 545.11071777 1536.11828613 C515.48021027 1536.02114673 486.02779981 1534.35999749 457.09619141 1527.48681641 C454.96966815 1526.99295578 452.8378673 1526.54363325 450.69921875 1526.10546875 C437.92432141 1523.45849517 425.46500053 1519.83123393 413 1516 C412.12504883 1515.73348633 411.25009766 1515.46697266 410.34863281 1515.19238281 C369.85370824 1502.7263902 330.68124314 1483.28845735 296 1459 C295.29955566 1458.51063965 294.59911133 1458.0212793 293.87744141 1457.51708984 C282.87365249 1449.79061571 272.30268708 1441.63654117 262 1433 C261.36513672 1432.46955078 260.73027344 1431.93910156 260.07617188 1431.39257812 C253.73190692 1426.07640944 247.53362307 1420.72805972 241.7734375 1414.7734375 C240.00693361 1413.00693361 238.16534458 1411.41513526 236.25 1409.8125 C230.86223811 1405.17627268 226.19075078 1399.85612893 221.43554688 1394.58837891 C220.1456956 1393.16120673 218.84684528 1391.74217997 217.546875 1390.32421875 C212.13662552 1384.39375297 207.01916739 1378.26358905 202 1372 C201.16855469 1370.97519531 200.33710937 1369.95039062 199.48046875 1368.89453125 C186.77627578 1353.10439487 175.62521135 1336.23868272 165 1319 C162.07087599 1321.26723089 159.42803815 1323.46205929 157.0625 1326.3125 C147.16569433 1337.8804768 136.66716063 1349.24529621 125.109375 1359.16796875 C122.82370454 1361.15311587 120.60298622 1363.2003983 118.375 1365.25 C112.17439706 1370.83621393 105.62170457 1375.92805608 99 1381 C98.35724121 1381.49435547 97.71448242 1381.98871094 97.05224609 1382.49804688 C52.5656778 1416.62894153 1.19555346 1442.6986305 -52.97509766 1457.44384766 C-55.03495852 1458.00960158 -57.08542587 1458.60321884 -59.13671875 1459.19921875 C-69.39292345 1462.10802114 -79.78005032 1464.2196354 -90.25 1466.1875 C-90.91919464 1466.31405975 -91.58838928 1466.44061951 -92.27786255 1466.5710144 C-117.21846275 1471.2591144 -142.13353957 1473.40506907 -167.5 1473.3125 C-168.54949829 1473.31067719 -169.59899658 1473.30885437 -170.68029785 1473.30697632 C-237.94049683 1473.11240317 -302.22502765 1459.37011684 -363 1430 C-363.9580957 1429.53948242 -364.91619141 1429.07896484 -365.90332031 1428.60449219 C-395.74474389 1414.19376073 -423.71511653 1396.36757153 -449.34667969 1375.34912109 C-450.83772233 1374.13241973 -452.34378233 1372.93417813 -453.8515625 1371.73828125 C-460.05041218 1366.79200149 -465.86046371 1361.5010293 -471.61132812 1356.04736328 C-474.59301378 1353.22248149 -477.59785469 1350.46472901 -480.73828125 1347.81640625 C-483.19600953 1345.7320517 -485.37958828 1343.61587496 -487.4375 1341.125 C-489.80496518 1338.33571475 -492.24682171 1335.73240928 -494.875 1333.1875 C-498.84674116 1329.27709847 -502.30874863 1325.04801278 -505.79296875 1320.703125 C-507.73234186 1318.327822 -509.7351073 1316.06623452 -511.8125 1313.8125 C-517.69130081 1307.25851018 -522.82004178 1300.10870046 -528 1293 C-528.50080078 1292.31341309 -529.00160156 1291.62682617 -529.51757812 1290.91943359 C-555.44053933 1255.20354148 -575.19693159 1216.1060915 -589.48046875 1174.39453125 C-590.60646538 1171.10882487 -591.80725411 1167.86384433 -593.0625 1164.625 C-595.00503496 1159.31429283 -596.49877974 1153.88568048 -598 1148.4375 C-598.23726807 1147.58172363 -598.47453613 1146.72594727 -598.71899414 1145.84423828 C-602.63049294 1131.35986386 -605.56185985 1116.74133484 -607.81030273 1101.91333008 C-608.18813312 1099.43334436 -608.58085532 1096.95601709 -608.97460938 1094.47851562 C-610.31122771 1085.88098948 -611.3324743 1077.36799259 -611.69999695 1068.67051697 C-611.8286893 1065.62535352 -612.04923506 1062.68041671 -612.51367188 1059.66577148 C-613.13684055 1054.96854378 -613.16237534 1050.35809182 -613.16796875 1045.625 C-613.17129715 1044.62404297 -613.17462555 1043.62308594 -613.17805481 1042.59179688 C-613.18310609 1040.47038224 -613.18546369 1038.3489597 -613.18530273 1036.22753906 C-613.18745533 1033.06561106 -613.20553514 1029.90405228 -613.22460938 1026.7421875 C-613.28107188 1006.90813361 -611.60548681 987.36688337 -608.75 967.75 C-608.64495148 967.01762115 -608.53990295 966.28524231 -608.43167114 965.53067017 C-599.04670424 900.6272262 -573.69406757 838.20117992 -537 784 C-536.52884766 783.30358398 -536.05769531 782.60716797 -535.57226562 781.88964844 C-528.24873842 771.13902339 -520.36048639 760.9606655 -512 751 C-511.25000732 750.1013623 -511.25000732 750.1013623 -510.48486328 749.18457031 C-496.27914575 732.20140785 -481.1209548 715.10740183 -464 701 C-463.03449219 700.20335937 -462.06898438 699.40671875 -461.07421875 698.5859375 C-458.38950844 696.38222358 -455.69811912 694.18726201 -453 692 C-454.29201228 689.30465904 -455.70757571 686.83824693 -457.3984375 684.375 C-457.87168457 683.67890625 -458.34493164 682.9828125 -458.83251953 682.265625 C-459.59604736 681.14414063 -459.59604736 681.14414063 -460.375 680 C-486.30512232 641.47074997 -505.09937886 600.24139999 -519 556 C-519.30808594 555.02305176 -519.61617187 554.04610352 -519.93359375 553.03955078 C-524.33464798 538.90091054 -527.38252659 524.56622842 -530 510 C-530.18836426 508.95231445 -530.37672852 507.90462891 -530.57080078 506.82519531 C-531.12649217 503.67773597 -531.661737 500.52758837 -532.1875 497.375 C-532.34234863 496.47233398 -532.49719727 495.56966797 -532.65673828 494.63964844 C-535.74765153 475.32732646 -536.32603678 455.95374664 -536.26074219 436.43066406 C-536.25003078 432.63590453 -536.26070346 428.84162025 -536.2734375 425.046875 C-536.28605866 403.25339449 -534.9968331 381.7588058 -531.37792969 360.25537109 C-531.02123094 358.12669986 -530.68436795 355.99579616 -530.3515625 353.86328125 C-518.39614071 279.48296564 -483.85067567 206.22275486 -435 149 C-434.49581543 148.40703125 -433.99163086 147.8140625 -433.47216797 147.203125 C-431.77820671 145.21432399 -430.07800474 143.23106117 -428.375 141.25 C-427.8483374 140.63543945 -427.3216748 140.02087891 -426.77905273 139.38769531 C-423.53072667 135.63919885 -420.15333623 132.08556777 -416.60009766 128.62426758 C-414.96589657 126.96538143 -413.48025489 125.23410592 -412 123.4375 C-406.76638995 117.36698384 -400.72080988 112.07598707 -394.81884766 106.67041016 C-393.22850687 105.20985825 -391.64885398 103.73914745 -390.07421875 102.26171875 C-383.58525669 96.23419399 -376.76195043 90.76973611 -369.75439453 85.36914062 C-368.09669058 84.07545794 -366.46493814 82.75617375 -364.83984375 81.421875 C-353.82012794 72.4329983 -341.93621085 64.70786141 -330 57 C-329.3188916 56.55946289 -328.6377832 56.11892578 -327.93603516 55.66503906 C-248.102088 4.59788729 -149.89289012 -17.18326302 0 0 Z " fill="#B3CDA9" transform="translate(813,210)"/>
<path d="M0 0 C1.02867187 0.2155957 1.02867187 0.2155957 2.078125 0.43554688 C62.67445744 13.17721755 123.52723208 41.40873298 172 80 C172.59651367 80.47469727 173.19302734 80.94939453 173.80761719 81.43847656 C198.32475343 101.01077559 198.32475343 101.01077559 209 112 C210.88541055 113.88541055 212.83311362 115.59995013 214.875 117.3125 C219.8742185 121.60885808 224.18361221 126.53191385 228.57666016 131.42822266 C229.95569094 132.95107003 231.35373683 134.45314412 232.76171875 135.94921875 C239.09426878 142.69611106 244.90315432 149.73341413 250.52587891 157.08007812 C252.08345679 159.10869562 253.65607957 161.12503255 255.23046875 163.140625 C268.71741489 180.48098432 280.3408854 198.90691212 291.1875 218 C291.76769897 219.01501587 291.76769897 219.01501587 292.35961914 220.05053711 C295 224.75815041 295 224.75815041 295 227 C295.60658447 226.61368408 296.21316895 226.22736816 296.83813477 225.8293457 C344.21603081 195.73551752 393.93183935 172.18803981 449 160 C450.14178711 159.74621582 451.28357422 159.49243164 452.45996094 159.23095703 C483.33045953 152.50895377 513.71494377 149.63940423 545.3125 149.625 C546.46274658 149.62300598 547.61299316 149.62101196 548.7980957 149.61895752 C570.79691882 149.62328273 592.44739375 151.01022921 614.125 154.8125 C615.678046 155.07804354 617.23110613 155.34350442 618.78417969 155.60888672 C629.68975153 157.49487696 640.52436066 159.6347813 651.2644043 162.32006836 C653.35867078 162.84059778 655.45737134 163.34331681 657.55786133 163.83813477 C667.63870312 166.23855304 677.40266664 169.28650838 687.1875 172.6875 C687.95068542 172.95111328 688.71387085 173.21472656 689.50018311 173.48632812 C701.92171767 177.7869246 714.08048404 182.43996129 726 188 C726.97018066 188.44811035 727.94036133 188.8962207 728.93994141 189.35791016 C750.11796642 199.18071096 770.6882065 209.84714933 790 223 C790.79647949 223.53882813 791.59295898 224.07765625 792.41357422 224.6328125 C803.46028446 232.13284596 814.04969622 240.00678743 824.28808594 248.57617188 C826.72763276 250.60518457 829.21120704 252.57861111 831.6875 254.5625 C841.7293759 262.82967029 850.99484274 271.88928535 860.22033691 281.04510498 C861.22328786 282.04001215 862.22771423 283.03343465 863.23376465 284.02520752 C869.21389557 289.92941539 874.82653695 295.99751643 880.05444336 302.58691406 C881.89659753 304.87174927 883.81694281 307.03651961 885.8125 309.1875 C891.69189085 315.74214762 896.81527926 322.89393048 902 330 C902.4954834 330.67595215 902.9909668 331.3519043 903.50146484 332.04833984 C938.95554421 380.61188401 963.64581744 436.4527891 977 495 C977.18369141 495.7748877 977.36738281 496.54977539 977.55664062 497.34814453 C981.24689384 513.04554186 982.97001883 529.11524793 984.94921875 545.09765625 C985.04071198 545.83048828 985.1322052 546.56332031 985.22647095 547.31835938 C986.44639082 557.32769844 987.15198807 567.18489437 987.1328125 577.2734375 C987.13376923 578.40020905 987.13472595 579.52698059 987.13571167 580.68789673 C987.13638743 583.04925595 987.13457567 585.41061709 987.13037109 587.77197266 C987.12498392 591.38578426 987.1303521 594.9994733 987.13671875 598.61328125 C987.13605845 600.91666694 987.13477829 603.22005255 987.1328125 605.5234375 C987.13584885 607.13912125 987.13584885 607.13912125 987.13894653 608.78744507 C987.13579437 609.79264191 987.13264221 610.79783875 987.12939453 611.83349609 C987.12820114 613.15273575 987.12820114 613.15273575 987.12698364 614.49862671 C986.99554703 617.0877163 986.54979652 619.47002329 986 622 C985.85110035 623.63171977 985.73269953 625.26643336 985.640625 626.90234375 C983.87588178 654.60205181 979.78257337 683.43891309 971.0234375 709.88476562 C970.01567948 712.95227335 969.06386542 716.03186914 968.125 719.12109375 C954.97348553 761.93237585 936.26018333 801.96439286 911 839 C910.34 839.99 909.68 840.98 909 842 C904.78398012 840.48949855 902.94659665 837.44553017 900.5625 833.875 C895.28406484 826.2432998 889.55435036 819.05931782 883.61181641 811.93652344 C882.59772876 810.71814367 881.58880788 809.49542619 880.58740234 808.26660156 C872.76235169 798.66479418 864.10476388 789.89538598 855.375 781.125 C854.79804382 780.54277679 854.22108765 779.96055359 853.62664795 779.36068726 C847.1221855 772.8103797 840.55952634 766.57779058 833.31445312 760.84301758 C831.18380661 759.14636667 829.14591727 757.38738125 827.125 755.5625 C787.41665085 720.5870652 738.41757014 695.97398192 689 678 C688.09685059 677.67032227 687.19370117 677.34064453 686.26318359 677.00097656 C673.7513891 672.4895244 660.91172033 669.1561983 648 666 C646.99469238 665.7510498 645.98938477 665.50209961 644.95361328 665.24560547 C631.46845081 662.00511328 617.73162827 660.20319169 604.00994873 658.28570557 C602.19927545 658.02832615 600.39073522 657.75604659 598.58251953 657.48193359 C580.42181724 654.7633332 562.26655686 654.687474 543.9375 654.625 C542.71821808 654.61705414 541.49893616 654.60910828 540.2427063 654.60092163 C441.70216257 654.1081568 344.97574124 690.81120883 234 783 C233.4632666 783.51336914 232.9265332 784.02673828 232.37353516 784.55566406 C226.46580728 790.23609818 221.090994 796.1087739 216.0703125 802.58984375 C213.91807253 805.09537594 211.63617405 807.02057315 209 809 C205.34469532 803.96487833 201.87719477 798.85206315 198.64233398 793.53857422 C192.36184881 783.23781495 185.30029985 773.5973315 178 764 C177.49259277 763.33129883 176.98518555 762.66259766 176.46240234 761.97363281 C171.09137576 754.92675916 165.52977778 748.17848582 159.484375 741.6953125 C157.61455718 739.66673656 155.8197649 737.61708694 154.03125 735.51953125 C149.1198691 729.88876661 143.82182787 724.63580227 138.54052734 719.35522461 C136.76238228 717.57489748 134.99240439 715.78671623 133.22265625 713.99804688 C127.21826593 707.96422738 121.13880228 702.26115093 114.4597168 696.96337891 C112.21100548 695.1684274 110.05471275 693.3116227 107.91015625 691.39453125 C103.5968358 687.58543632 99.04925971 684.12547137 94.4375 680.6875 C93.12096436 679.70475098 93.12096436 679.70475098 91.77783203 678.70214844 C78.68711167 668.99560227 65.02138142 660.2967477 51 652 C50.32227539 651.59845703 49.64455078 651.19691406 48.94628906 650.78320312 C-7.58127373 617.62257332 -71.75001675 598.0202904 -137 593 C-138.70071655 592.85643066 -138.70071655 592.85643066 -140.43579102 592.70996094 C-150.64422571 591.91927 -160.81705773 591.84702285 -171.05151367 591.86962891 C-173.92957846 591.87498526 -176.80748681 591.86965243 -179.68554688 591.86328125 C-197.29614246 591.85372652 -214.4456221 593.06647943 -231.875 595.5625 C-233.2374585 595.75649384 -233.2374585 595.75649384 -234.62744141 595.95440674 C-313.33927037 607.30416902 -389.70594992 640.02429503 -451 691 C-462.96643088 679.5181253 -470.83116489 664.25425673 -479 650 C-479.46470703 649.19449707 -479.92941406 648.38899414 -480.40820312 647.55908203 C-497.04272708 618.64465361 -509.02161602 587.75812595 -519 556 C-519.46212891 554.53457764 -519.46212891 554.53457764 -519.93359375 553.03955078 C-524.33464798 538.90091054 -527.38252659 524.56622842 -530 510 C-530.18836426 508.95231445 -530.37672852 507.90462891 -530.57080078 506.82519531 C-531.12649217 503.67773597 -531.661737 500.52758837 -532.1875 497.375 C-532.34234863 496.47233398 -532.49719727 495.56966797 -532.65673828 494.63964844 C-535.74765153 475.32732646 -536.32603678 455.95374664 -536.26074219 436.43066406 C-536.25003078 432.63590453 -536.26070346 428.84162025 -536.2734375 425.046875 C-536.28605866 403.25339449 -534.9968331 381.7588058 -531.37792969 360.25537109 C-531.02123094 358.12669986 -530.68436795 355.99579616 -530.3515625 353.86328125 C-518.39614071 279.48296564 -483.85067567 206.22275486 -435 149 C-434.49581543 148.40703125 -433.99163086 147.8140625 -433.47216797 147.203125 C-431.77820671 145.21432399 -430.07800474 143.23106117 -428.375 141.25 C-427.8483374 140.63543945 -427.3216748 140.02087891 -426.77905273 139.38769531 C-423.53072667 135.63919885 -420.15333623 132.08556777 -416.60009766 128.62426758 C-414.96589657 126.96538143 -413.48025489 125.23410592 -412 123.4375 C-406.76638995 117.36698384 -400.72080988 112.07598707 -394.81884766 106.67041016 C-393.22850687 105.20985825 -391.64885398 103.73914745 -390.07421875 102.26171875 C-383.58525669 96.23419399 -376.76195043 90.76973611 -369.75439453 85.36914062 C-368.09669058 84.07545794 -366.46493814 82.75617375 -364.83984375 81.421875 C-353.82012794 72.4329983 -341.93621085 64.70786141 -330 57 C-329.3188916 56.55946289 -328.6377832 56.11892578 -327.93603516 55.66503906 C-248.102088 4.59788729 -149.89289012 -17.18326302 0 0 Z " fill="#EDB0AC" transform="translate(813,210)"/>
<path d="M0 0 C0.95215393 -0.00067474 1.90430786 -0.00134949 2.88531494 -0.00204468 C32.40273496 0.03078996 61.33375287 2.55273253 90.3125 8.25 C91.3020166 8.44319824 92.2915332 8.63639648 93.31103516 8.83544922 C108.63252044 11.90080238 123.45256856 16.46547246 138.3125 21.25 C139.25013184 21.54664551 140.18776367 21.84329102 141.15380859 22.14892578 C180.80527072 34.69721969 219.23693624 53.38258332 253.3125 77.25 C253.91529785 77.66668945 254.5180957 78.08337891 255.13916016 78.51269531 C268.58659741 87.81181326 281.84208491 97.65747132 293.7578125 108.87109375 C295.72064735 110.69887115 297.70595859 112.43867929 299.74609375 114.17578125 C305.54518457 119.23165994 310.94720897 124.69869071 316.38452148 130.13671875 C318.23727468 131.98728967 320.09788706 133.82970076 321.95898438 135.671875 C328.12204161 141.80601702 333.96262353 147.98581804 339.36621094 154.80712891 C341.1571104 157.05496384 343.01139324 159.20886756 344.92578125 161.3515625 C348.68184534 165.60562646 352.10585995 170.07945286 355.5 174.625 C356.14855957 175.49205566 356.79711914 176.35911133 357.46533203 177.25244141 C363.7384717 185.70941494 369.59754294 194.40922772 375.3125 203.25 C375.99844238 204.30864258 375.99844238 204.30864258 376.69824219 205.38867188 C379.25122979 209.33302853 381.78918024 213.28660381 384.3125 217.25 C387.72125322 214.67735606 390.31515423 212.15575592 392.875 208.75 C397.65465832 202.7754271 402.96343775 197.40317529 408.375 192 C409.65129272 190.72286133 409.65129272 190.72286133 410.95336914 189.41992188 C415.37666536 185.03391869 419.87128556 180.79095657 424.59448242 176.72949219 C426.75504902 174.86889341 428.84308236 172.93448029 430.9375 171 C447.37025974 156.21300983 465.71972595 143.15261439 484.43115234 131.43017578 C486.12334219 130.36865934 487.8064162 129.29264411 489.48828125 128.21484375 C540.33130628 96.09998877 598.63548636 75.02234167 658.16577148 66.94238281 C660.50915788 66.62375481 662.85126764 66.29674534 665.19335938 65.96875 C666.72649443 65.7573183 668.25969545 65.54636427 669.79296875 65.3359375 C670.47143356 65.24114105 671.14989838 65.1463446 671.84892273 65.04867554 C682.17184091 63.65965192 692.45997983 63.08409903 702.87109375 63.01171875 C704.041633 63.00197021 705.21217224 62.99222168 706.41818237 62.98217773 C732.991812 62.80656704 759.02266941 63.24164489 785.3125 67.25 C786.61300293 67.44255371 787.91350586 67.63510742 789.25341797 67.83349609 C797.64915175 69.10223657 805.98784097 70.57861593 814.3125 72.25 C815.33037598 72.45286621 816.34825195 72.65573242 817.39697266 72.86474609 C854.74506176 80.53634413 890.32287709 95.30593715 924.3125 112.25 C925.10736816 112.64541992 925.90223633 113.04083984 926.72119141 113.44824219 C957.6708807 128.98135314 987.18114898 149.55724128 1012.73046875 172.9140625 C1014.11856169 174.16985612 1015.51240376 175.42003377 1016.93823242 176.6328125 C1023.09393841 181.8891171 1028.81028941 187.56167085 1034.5300293 193.28222656 C1036.23793056 194.98794598 1037.95368045 196.68549027 1039.66992188 198.3828125 C1046.35014015 205.02923774 1052.46943941 211.84657225 1058.3125 219.25 C1059.18794675 220.30065519 1060.06824768 221.34732128 1060.95703125 222.38671875 C1065.74479235 228.01988632 1070.30764884 233.77942241 1074.75 239.6875 C1075.25829346 240.36192139 1075.76658691 241.03634277 1076.2902832 241.73120117 C1078.83212571 245.14007498 1081.20734838 248.54636036 1083.3125 252.25 C1072.77341316 267.29277471 1061.52661277 281.529367 1049.3125 295.25 C1048.8376416 295.78415527 1048.3627832 296.31831055 1047.87353516 296.86865234 C1036.10556967 310.03035643 1023.83613942 323.37858186 1009.8828125 334.23828125 C1007.48866835 336.11211748 1005.18950277 338.06926008 1002.89648438 340.06469727 C983.67844013 356.72053308 962.23160102 370.46818615 940.3125 383.25 C939.18521484 383.90766357 939.18521484 383.90766357 938.03515625 384.57861328 C919.2560459 395.45359273 899.64268974 404.67250634 879.3125 412.25 C878.16749023 412.67812988 877.02248047 413.10625977 875.84277344 413.54736328 C842.51660492 425.94595241 808.65928939 434.43187827 773.3125 438.5625 C772.61592285 438.64390228 771.9193457 438.72530457 771.20166016 438.80917358 C722.26346109 444.43494656 672.36310572 442.1305691 624.3125 431.25 C623.28705078 431.02618652 622.26160156 430.80237305 621.20507812 430.57177734 C554.54394304 415.90063009 491.27641285 383.02279821 438.93505859 339.58935547 C436.74788858 337.78393647 434.53322475 336.01388994 432.3125 334.25 C432.44825439 334.92353516 432.58400879 335.59707031 432.72387695 336.29101562 C434.05539235 342.90407728 435.37825261 349.51881208 436.69287109 356.13525391 C437.0586246 357.97382096 437.42561503 359.81214393 437.79541016 361.64990234 C439.41907854 369.73357518 440.76414321 377.84009669 441.9375 386 C442.0607666 386.82008545 442.1840332 387.6401709 442.31103516 388.48510742 C450.25052789 446.09859103 445.04720289 509.85554954 427.3125 565.25 C426.90451172 566.6421875 426.90451172 566.6421875 426.48828125 568.0625 C413.74841024 611.41264932 394.24290952 653.22422994 368.3125 690.25 C367.82313965 690.95044434 367.3337793 691.65088867 366.82958984 692.37255859 C360.86616795 700.86546683 354.70735865 709.17494571 348.1875 717.25 C347.37091919 718.26501587 347.37091919 718.26501587 346.5378418 719.30053711 C346.02777588 719.92323486 345.51770996 720.54593262 344.9921875 721.1875 C344.32292236 722.00541016 344.32292236 722.00541016 343.64013672 722.83984375 C342.3125 724.25 342.3125 724.25 339.3125 726.25 C319.80536553 691.36243455 302.93819991 654.68860032 293.88818359 615.60253906 C293.2734548 613.09044124 292.57223078 610.61207408 291.86328125 608.125 C289.94582733 601.1632419 288.62416133 594.09627832 287.3125 587 C287.11740341 585.95385025 287.11740341 585.95385025 286.91836548 584.88656616 C283.00954263 563.85140504 280.16618685 542.82163729 280.14453125 521.390625 C280.14120285 520.2031366 280.13787445 519.01564819 280.13444519 517.79217529 C280.12941625 515.29130435 280.12703561 512.79042678 280.12719727 510.28955078 C280.12502956 506.55098758 280.10688161 502.81272924 280.08789062 499.07421875 C279.89161814 415.43034772 305.16157859 331.30570805 352.1105957 261.93554688 C352.64257568 261.13697266 353.17455566 260.33839844 353.72265625 259.515625 C354.19840088 258.81211914 354.67414551 258.10861328 355.16430664 257.38378906 C356.47595523 254.94623673 357.05534186 253.00609446 357.3125 250.25 C355.95104556 247.76099739 354.59928444 245.64590721 352.9375 243.375 C352.0022995 242.03718497 351.07007944 240.69728225 350.140625 239.35546875 C349.66560547 238.67403809 349.19058594 237.99260742 348.70117188 237.29052734 C344.95799603 231.79027001 341.66700779 225.99208429 338.3125 220.25 C337.92723145 219.59451172 337.54196289 218.93902344 337.14501953 218.26367188 C336.0074738 216.3249642 334.87721201 214.38223097 333.75 212.4375 C333.08871094 211.29667969 332.42742188 210.15585937 331.74609375 208.98046875 C330.3125 206.25 330.3125 206.25 330.3125 204.25 C329.82185059 204.57572998 329.33120117 204.90145996 328.82568359 205.23706055 C279.21033542 238.07529549 225.84544596 261.48411817 167.3125 273.25 C165.8898584 273.54148926 165.8898584 273.54148926 164.43847656 273.83886719 C154.87450068 275.7897957 145.27836113 277.49119316 135.625 278.9375 C134.85494629 279.05697998 134.08489258 279.17645996 133.29150391 279.29956055 C116.15447244 281.74189702 98.69626057 281.46483757 81.43066406 281.49023438 C77.47959993 281.49989704 73.52906696 281.5310027 69.578125 281.5625 C46.91640548 281.65751695 24.56003831 279.90650262 2.3125 275.5 C1.65793823 275.37272522 1.00337646 275.24545044 0.32897949 275.11431885 C-34.75129762 268.28241241 -69.09664587 258.01377208 -101.6875 243.25 C-102.63302734 242.82396484 -103.57855469 242.39792969 -104.55273438 241.95898438 C-133.01671859 229.02080973 -160.30775405 213.16282768 -184.82373047 193.71679688 C-186.56581629 192.34576575 -188.32488549 191.00288063 -190.09765625 189.671875 C-198.6384085 183.25155884 -206.70196057 176.34299736 -214.6875 169.25 C-215.81393921 168.25709961 -215.81393921 168.25709961 -216.96313477 167.24414062 C-223.08945762 161.79852031 -228.98051078 156.14325324 -234.77416992 150.34863281 C-236.24705972 148.8779359 -237.72780265 147.41546466 -239.20898438 145.953125 C-245.47875903 139.71992914 -251.17712319 133.16753164 -256.6875 126.25 C-257.67031513 125.07892178 -258.65884895 123.91258693 -259.65625 122.75390625 C-265.64584371 115.79377652 -271.27392628 108.66860102 -276.6875 101.25 C-221.2166858 43.94037428 -130.38872151 14.65014629 -53.625 3.5 C-52.89841187 3.39299774 -52.17182373 3.28599548 -51.42321777 3.17575073 C-34.30562297 0.67589917 -17.280177 0.01114558 0 0 Z " fill="#B6C2B7" transform="translate(637.6875,800.75)"/>
<path d="M0 0 C4.36641202 4.00254435 7.39096017 8.35222329 10.5 13.375 C11.27331665 14.61479614 11.27331665 14.61479614 12.06225586 15.87963867 C38.81158685 59.17561199 59.10855342 106.18241087 70 156 C70.1846582 156.81645996 70.36931641 157.63291992 70.55957031 158.47412109 C77.8423281 190.89223481 80.16145423 223.9214305 80.1875 257.0625 C80.18858765 257.79937042 80.18967529 258.53624084 80.1907959 259.29544067 C80.18389176 300.31004604 73.97877016 342.68802215 60.81054688 381.59082031 C60.20374536 383.39440986 59.60788311 385.20168626 59.01757812 387.01074219 C47.43321396 422.49689159 32.31447971 456.5827368 12 488 C11.32839844 489.04414062 10.65679688 490.08828125 9.96484375 491.1640625 C8.01378378 494.13672471 6.01802738 497.07238728 4 500 C3.35708008 500.94045166 3.35708008 500.94045166 2.70117188 501.89990234 C-4.70024925 512.70093311 -12.57898272 522.97608209 -21 533 C-21.76594482 533.91458984 -21.76594482 533.91458984 -22.54736328 534.84765625 C-37.72018042 552.912624 -53.77595167 571.47031254 -72.4296875 585.98828125 C-74.82383165 587.86211748 -77.12299723 589.81926008 -79.41601562 591.81469727 C-98.63405987 608.47053308 -120.08089898 622.21818615 -142 635 C-142.75152344 635.43844238 -143.50304688 635.87688477 -144.27734375 636.32861328 C-163.049562 647.19960152 -182.66221783 656.45978007 -203 664 C-203.60666504 664.22492126 -204.21333008 664.44984253 -204.83837891 664.68157959 C-228.9518241 673.59887238 -252.88702906 681.09930861 -278.26953125 685.5234375 C-281.1402633 686.02448086 -284.00740076 686.54385164 -286.875 687.0625 C-300.2116968 689.42687964 -313.49334581 691.02646392 -327 692 C-328.11294434 692.08830078 -329.22588867 692.17660156 -330.37255859 692.26757812 C-340.09606066 692.99403927 -349.75379024 693.1617196 -359.5 693.125 C-360.28846313 693.12278442 -361.07692627 693.12056885 -361.88928223 693.11828613 C-391.51978973 693.02114673 -420.97220019 691.35999749 -449.90380859 684.48681641 C-452.03033185 683.99295578 -454.1621327 683.54363325 -456.30078125 683.10546875 C-469.07567859 680.45849517 -481.53499947 676.83123393 -494 673 C-494.87495117 672.73348633 -495.74990234 672.46697266 -496.65136719 672.19238281 C-537.14629176 659.7263902 -576.31875686 640.28845735 -611 616 C-611.70044434 615.51063965 -612.40088867 615.0212793 -613.12255859 614.51708984 C-624.12634751 606.79061571 -634.69731292 598.63654117 -645 590 C-645.63486328 589.46955078 -646.26972656 588.93910156 -646.92382812 588.39257812 C-653.26809308 583.07640944 -659.46637693 577.72805972 -665.2265625 571.7734375 C-666.99306639 570.00693361 -668.83465542 568.41513526 -670.75 566.8125 C-676.13776189 562.17627268 -680.80924922 556.85612893 -685.56445312 551.58837891 C-686.8543044 550.16120673 -688.15315472 548.74217997 -689.453125 547.32421875 C-694.86337448 541.39375297 -699.98083261 535.26358905 -705 529 C-706.24716797 527.46279297 -706.24716797 527.46279297 -707.51953125 525.89453125 C-718.14631684 512.68642002 -727.74603082 498.71396075 -736.875 484.4375 C-737.39312256 483.63417236 -737.91124512 482.83084473 -738.44506836 482.00317383 C-738.91436768 481.2583374 -739.38366699 480.51350098 -739.8671875 479.74609375 C-740.28081543 479.09310303 -740.69444336 478.4401123 -741.12060547 477.76733398 C-742 476 -742 476 -742 473 C-740.671875 471.30078125 -740.671875 471.30078125 -738.75 469.3125 C-722.83069155 451.93835141 -709.88334587 431.2670802 -698 411 C-697.59217285 410.30680664 -697.1843457 409.61361328 -696.76416016 408.89941406 C-683.58134481 386.31091195 -673.09094958 362.4912056 -664 338 C-663.64147949 337.03884277 -663.28295898 336.07768555 -662.91357422 335.08740234 C-659.33778024 325.42706081 -656.22508872 315.78857841 -653.890625 305.75390625 C-653.04204433 302.17721318 -652.06695889 298.66053586 -651.0625 295.125 C-648.04736219 283.89539223 -646.06688641 272.43460721 -644 261 C-643.84112305 260.13826172 -643.68224609 259.27652344 -643.51855469 258.38867188 C-639.38685551 235.72494954 -638.81806893 213.10362254 -638.8125 190.125 C-638.81150299 189.03493652 -638.81050598 187.94487305 -638.80947876 186.82177734 C-638.81152556 167.020699 -639.28248115 147.48122004 -642.1875 127.875 C-642.2933844 127.13717285 -642.3992688 126.3993457 -642.50836182 125.63916016 C-644.16006971 114.18076315 -646.34863112 102.95695829 -649.20776367 91.72998047 C-649.58058472 90.25489014 -649.58058472 90.25489014 -649.9609375 88.75 C-650.18571777 87.89921875 -650.41049805 87.0484375 -650.64208984 86.171875 C-651 84 -651 84 -650 81 C-649.2471875 81.65484375 -648.494375 82.3096875 -647.71875 82.984375 C-611.6718821 114.07119388 -569.32020914 139.63335012 -525 157 C-524.00403809 157.3904248 -523.00807617 157.78084961 -521.98193359 158.18310547 C-488.92450984 171.02011263 -454.33568379 181.00007541 -419 185 C-417.87190918 185.13390137 -416.74381836 185.26780273 -415.58154297 185.40576172 C-382.43102633 189.21976577 -348.15875138 190.06314209 -315 186 C-314.02117859 185.88334991 -314.02117859 185.88334991 -313.02258301 185.76434326 C-293.66279651 183.45637354 -274.63149192 180.55126925 -255.72216797 175.69238281 C-253.2806197 175.07137556 -250.83451793 174.4918608 -248.37890625 173.9296875 C-224.66377412 168.3310501 -201.08997193 159.19729895 -179 149 C-178.04963867 148.5678418 -177.09927734 148.13568359 -176.12011719 147.69042969 C-152.94852057 137.10771466 -130.86164339 124.6266335 -110 110 C-108.89567627 109.23139648 -108.89567627 109.23139648 -107.76904297 108.44726562 C-97.10656929 100.99842258 -86.91543063 93.09026576 -76.9921875 84.68359375 C-75.12988139 83.10976251 -73.25417139 81.55361319 -71.375 80 C-63.35799192 73.29332699 -55.88836864 66.07172537 -48.5 58.6875 C-47.56776611 57.75615234 -46.63553223 56.82480469 -45.67504883 55.86523438 C-40.58386559 50.73225612 -35.68752571 45.5027155 -31 40 C-30.01526963 38.87026785 -29.02962229 37.74133418 -28.04296875 36.61328125 C-17.91088678 24.93423657 -8.67266055 12.79950627 0 0 Z " fill="#BBD0DD" transform="translate(1720,1053)"/>
<path d="M0 0 C1.15024658 -0.00199402 2.30049316 -0.00398804 3.4855957 -0.00604248 C25.48441882 -0.00171727 47.13489375 1.38522921 68.8125 5.1875 C70.365546 5.45304354 71.91860613 5.71850442 73.47167969 5.98388672 C84.37725153 7.86987696 95.21186066 10.0097813 105.9519043 12.69506836 C108.04617078 13.21559778 110.14487134 13.71831681 112.24536133 14.21313477 C122.32620312 16.61355304 132.09016664 19.66150838 141.875 23.0625 C142.63818542 23.32611328 143.40137085 23.58972656 144.18768311 23.86132812 C156.60921767 28.1619246 168.76798404 32.81496129 180.6875 38.375 C181.65768066 38.82311035 182.62786133 39.2712207 183.62744141 39.73291016 C204.80546642 49.55571096 225.3757065 60.22214933 244.6875 73.375 C245.88221924 74.18324219 245.88221924 74.18324219 247.10107422 75.0078125 C258.14778446 82.50784596 268.73719622 90.38178743 278.97558594 98.95117188 C281.41513276 100.98018457 283.89870704 102.95361111 286.375 104.9375 C296.4168759 113.20467029 305.68234274 122.26428535 314.90783691 131.42010498 C315.91078786 132.41501215 316.91521423 133.40843465 317.92126465 134.40020752 C323.90139557 140.30441539 329.51403695 146.37251643 334.74194336 152.96191406 C336.58409753 155.24674927 338.50444281 157.41151961 340.5 159.5625 C346.37939085 166.11714762 351.50277926 173.26893048 356.6875 180.375 C357.1829834 181.05095215 357.6784668 181.7269043 358.18896484 182.42333984 C393.64304421 230.98688401 418.33331744 286.8277891 431.6875 345.375 C431.96303711 346.53733154 431.96303711 346.53733154 432.24414062 347.72314453 C435.93439384 363.42054186 437.65751883 379.49024793 439.63671875 395.47265625 C439.72821198 396.20548828 439.8197052 396.93832031 439.91397095 397.69335938 C441.13389082 407.70269844 441.83948807 417.55989437 441.8203125 427.6484375 C441.82126923 428.77520905 441.82222595 429.90198059 441.82321167 431.06289673 C441.82388743 433.42425595 441.82207567 435.78561709 441.81787109 438.14697266 C441.81248392 441.76078426 441.8178521 445.3744733 441.82421875 448.98828125 C441.82355845 451.29166694 441.82227829 453.59505255 441.8203125 455.8984375 C441.82233673 456.97556 441.82436096 458.0526825 441.82644653 459.16244507 C441.82329437 460.16764191 441.82014221 461.17283875 441.81689453 462.20849609 C441.81570114 463.52773575 441.81570114 463.52773575 441.81448364 464.87362671 C441.68304703 467.4627163 441.23729652 469.84502329 440.6875 472.375 C440.53860035 474.00671977 440.42019953 475.64143336 440.328125 477.27734375 C438.56338178 504.97705181 434.47007337 533.81391309 425.7109375 560.25976562 C424.70317948 563.32727335 423.75136542 566.40686914 422.8125 569.49609375 C409.66098553 612.30737585 390.94768333 652.33939286 365.6875 689.375 C365.0275 690.365 364.3675 691.355 363.6875 692.375 C359.47148012 690.86449855 357.63409665 687.82053017 355.25 684.25 C349.97156484 676.6182998 344.24185036 669.43431782 338.29931641 662.31152344 C337.28522876 661.09314367 336.27630788 659.87042619 335.27490234 658.64160156 C327.44985169 649.03979418 318.79226388 640.27038598 310.0625 631.5 C309.48554382 630.91777679 308.90858765 630.33555359 308.31414795 629.73568726 C301.8096855 623.1853797 295.24702634 616.95279058 288.00195312 611.21801758 C285.87130661 609.52136667 283.83341727 607.76238125 281.8125 605.9375 C242.10415085 570.9620652 193.10507014 546.34898192 143.6875 528.375 C142.78435059 528.04532227 141.88120117 527.71564453 140.95068359 527.37597656 C128.4388891 522.8645244 115.59922033 519.5311983 102.6875 516.375 C101.68219238 516.1260498 100.67688477 515.87709961 99.64111328 515.62060547 C86.15595081 512.38011328 72.41912827 510.57819169 58.69744873 508.66070557 C56.88677545 508.40332615 55.07823522 508.13104659 53.27001953 507.85693359 C35.10931724 505.1383332 16.95405686 505.062474 -1.375 505 C-2.59428192 504.99205414 -3.81356384 504.98410828 -5.0697937 504.97592163 C-103.61033743 504.4831568 -200.33675876 541.18620883 -311.3125 633.375 C-311.8492334 633.88836914 -312.3859668 634.40173828 -312.93896484 634.93066406 C-318.84669272 640.61109818 -324.221506 646.4837739 -329.2421875 652.96484375 C-331.39442747 655.47037594 -333.67632595 657.39557315 -336.3125 659.375 C-341.04358913 652.85800306 -345.37858669 646.14603138 -349.59448242 639.2902832 C-352.58722705 634.45017956 -355.7779203 629.82102891 -359.23046875 625.29296875 C-359.58753906 624.66003906 -359.94460938 624.02710938 -360.3125 623.375 C-359.0831815 619.6870445 -357.74237206 618.91898686 -354.6875 616.5625 C-337.67268928 602.93752947 -320.72861485 587.15856167 -307.33203125 569.95703125 C-305.41948466 567.51178309 -303.42576473 565.15512669 -301.39624023 562.80664062 C-290.69805187 550.40055823 -281.13506316 537.16842546 -272.3125 523.375 C-271.56830811 522.21339355 -271.56830811 522.21339355 -270.80908203 521.02832031 C-248.48149181 485.99413905 -231.35271894 449.12705027 -219.22900391 409.36572266 C-218.45942907 406.85445687 -217.66622861 404.35362619 -216.85546875 401.85546875 C-210.64591823 382.37246703 -207.37655793 362.01446539 -204.5 341.8125 C-204.34229126 340.70844818 -204.34229126 340.70844818 -204.18139648 339.58209229 C-202.27441768 326.10452338 -201.15581048 312.84789455 -201.109375 299.22265625 C-201.10654762 298.56377348 -201.10372025 297.90489071 -201.10080719 297.22604179 C-201.0859217 293.72368875 -201.07663109 290.22137559 -201.07226562 286.71899414 C-201.06792752 283.89496611 -201.05420414 281.07125165 -201.03125 278.24731445 C-200.83687719 253.8099853 -202.22654071 229.72811016 -206.625 205.625 C-206.83664795 204.4393042 -207.0482959 203.2536084 -207.26635742 202.03198242 C-214.58788685 162.09515676 -226.82266459 120.73324272 -246.58642578 85.07666016 C-247.75390625 82.95703125 -247.75390625 82.95703125 -249.3125 79.375 C-248.16145737 75.41404502 -245.61214785 73.98700614 -242.203125 71.90625 C-241.14971924 71.25873779 -240.09631348 70.61122559 -239.01098633 69.9440918 C-237.86195659 69.25361895 -236.71244901 68.56394075 -235.5625 67.875 C-234.37840153 67.15746935 -233.19440196 66.43977545 -232.01049805 65.72192383 C-189.80264855 40.25116992 -144.54104269 21.04925154 -96.3125 10.375 C-95.17071289 10.12121582 -94.02892578 9.86743164 -92.85253906 9.60595703 C-61.98204047 2.88395377 -31.59755623 0.01440423 0 0 Z " fill="#F1D399" transform="translate(1358.3125,359.625)"/>
<path d="M0 0 C0.95215393 -0.00067474 1.90430786 -0.00134949 2.88531494 -0.00204468 C32.40273496 0.03078996 61.33375287 2.55273253 90.3125 8.25 C91.3020166 8.44319824 92.2915332 8.63639648 93.31103516 8.83544922 C108.63252044 11.90080238 123.45256856 16.46547246 138.3125 21.25 C139.25013184 21.54664551 140.18776367 21.84329102 141.15380859 22.14892578 C180.80527072 34.69721969 219.23693624 53.38258332 253.3125 77.25 C253.91529785 77.66668945 254.5180957 78.08337891 255.13916016 78.51269531 C268.58659741 87.81181326 281.84208491 97.65747132 293.7578125 108.87109375 C295.72064735 110.69887115 297.70595859 112.43867929 299.74609375 114.17578125 C305.54518457 119.23165994 310.94720897 124.69869071 316.38452148 130.13671875 C318.23727468 131.98728967 320.09788706 133.82970076 321.95898438 135.671875 C328.12204161 141.80601702 333.96262353 147.98581804 339.36621094 154.80712891 C341.1571104 157.05496384 343.01139324 159.20886756 344.92578125 161.3515625 C348.68184534 165.60562646 352.10585995 170.07945286 355.5 174.625 C356.14855957 175.49205566 356.79711914 176.35911133 357.46533203 177.25244141 C363.24304287 185.04151517 368.67117756 193.0259292 373.94140625 201.16455078 C375.30370671 203.2366253 376.70694867 205.27436536 378.125 207.30859375 C378.9791786 208.55988769 379.83334591 209.81118933 380.6875 211.0625 C381.81285156 212.68091797 381.81285156 212.68091797 382.9609375 214.33203125 C384.3125 217.25 384.3125 217.25 383.80859375 219.8125 C382.08810254 222.61559795 380.17666483 224.96871322 378 227.4375 C371.21738053 235.29213666 365.30264076 243.78634666 359.3125 252.25 C349.51903821 240.31978291 342.03303279 226.80893106 334.52392578 213.38183594 C333.54112837 211.65233433 332.50998582 209.95036815 331.46484375 208.2578125 C330.3125 206.25 330.3125 206.25 330.3125 204.25 C329.82185059 204.57572998 329.33120117 204.90145996 328.82568359 205.23706055 C279.21033542 238.07529549 225.84544596 261.48411817 167.3125 273.25 C165.8898584 273.54148926 165.8898584 273.54148926 164.43847656 273.83886719 C154.87450068 275.7897957 145.27836113 277.49119316 135.625 278.9375 C134.85494629 279.05697998 134.08489258 279.17645996 133.29150391 279.29956055 C116.15447244 281.74189702 98.69626057 281.46483757 81.43066406 281.49023438 C77.47959993 281.49989704 73.52906696 281.5310027 69.578125 281.5625 C46.91640548 281.65751695 24.56003831 279.90650262 2.3125 275.5 C1.65793823 275.37272522 1.00337646 275.24545044 0.32897949 275.11431885 C-34.75129762 268.28241241 -69.09664587 258.01377208 -101.6875 243.25 C-102.63302734 242.82396484 -103.57855469 242.39792969 -104.55273438 241.95898438 C-133.01671859 229.02080973 -160.30775405 213.16282768 -184.82373047 193.71679688 C-186.56581629 192.34576575 -188.32488549 191.00288063 -190.09765625 189.671875 C-198.6384085 183.25155884 -206.70196057 176.34299736 -214.6875 169.25 C-215.81393921 168.25709961 -215.81393921 168.25709961 -216.96313477 167.24414062 C-223.08945762 161.79852031 -228.98051078 156.14325324 -234.77416992 150.34863281 C-236.24705972 148.8779359 -237.72780265 147.41546466 -239.20898438 145.953125 C-245.47875903 139.71992914 -251.17712319 133.16753164 -256.6875 126.25 C-257.67031513 125.07892178 -258.65884895 123.91258693 -259.65625 122.75390625 C-265.64584371 115.79377652 -271.27392628 108.66860102 -276.6875 101.25 C-221.2166858 43.94037428 -130.38872151 14.65014629 -53.625 3.5 C-52.89841187 3.39299774 -52.17182373 3.28599548 -51.42321777 3.17575073 C-34.30562297 0.67589917 -17.280177 0.01114558 0 0 Z " fill="#ACAD8B" transform="translate(637.6875,800.75)"/>
<path d="M0 0 C3 1 3 1 4.32763672 3.05249023 C5.85901326 6.17414241 7.38493113 9.29582043 8.875 12.4375 C9.4421875 13.6244043 10.009375 14.81130859 10.59375 16.03417969 C15.17773698 25.76479018 19.17907105 35.69850573 23 45.75 C23.2668158 46.45140106 23.53363159 47.15280212 23.80853271 47.87545776 C29.03427871 61.67994465 33.84119918 75.56228199 37.5 89.875 C37.79624268 91.03209473 38.09248535 92.18918945 38.39770508 93.38134766 C45.96586488 123.4452947 51.09712572 154.23301994 51.203125 185.28515625 C51.20736607 186.27397702 51.20736607 186.27397702 51.21169281 187.28277397 C51.22655966 190.78397877 51.23586304 194.28514382 51.24023438 197.78637695 C51.2445794 200.61040447 51.25833338 203.43411962 51.28125 206.25805664 C51.48063478 231.37920652 49.60653646 255.9883861 45.1875 280.75 C45.05927856 281.48037476 44.93105713 282.21074951 44.7989502 282.96325684 C34.01087724 344.15499972 9.30500593 402.92437529 -26 454 C-26.39364746 454.57379395 -26.78729492 455.14758789 -27.19287109 455.73876953 C-33.52041925 464.92859509 -40.40347795 473.59579633 -47.51171875 482.19140625 C-48.82234403 483.78410836 -50.11569292 485.39099377 -51.40625 487 C-60.43306304 498.25081046 -70.41549834 508.5151843 -80.5625 518.75 C-81.85559082 520.06266846 -81.85559082 520.06266846 -83.17480469 521.40185547 C-88.38949086 526.62345244 -93.78543303 531.43751862 -99.55175781 536.04370117 C-102.77222362 538.61705503 -105.88510537 541.30042465 -109 544 C-113.09001852 540.1405098 -116.33551589 535.98656678 -119.625 531.4375 C-124.20217235 525.21590709 -129.01870219 519.44539924 -134.33203125 513.84375 C-136.28002673 511.76740928 -138.13054524 509.68059201 -139.97265625 507.515625 C-144.96993768 501.77421194 -150.40020552 496.45063177 -155.7890625 491.08056641 C-157.63137765 489.24364101 -159.46824878 487.40139201 -161.3046875 485.55859375 C-162.48665843 484.37728317 -163.66893929 483.19628258 -164.8515625 482.015625 C-165.39438873 481.47077454 -165.93721497 480.92592407 -166.49649048 480.36456299 C-168.85677135 478.01865643 -171.15660496 475.87916158 -173.79858398 473.84057617 C-177.00897466 471.15640901 -177.56273631 467.9901849 -178.4375 464.0625 C-178.63577393 463.22130615 -178.83404785 462.3801123 -179.03833008 461.51342773 C-181.11146129 452.26622398 -182.64659913 442.91015689 -184.1875 433.5625 C-184.31405975 432.80228546 -184.44061951 432.04207092 -184.5710144 431.25881958 C-188.08316794 409.96038928 -189.4099359 388.9579937 -189.375 367.375 C-189.37478851 366.16221375 -189.37457703 364.94942749 -189.37435913 363.69989014 C-189.31936573 331.84698143 -187.28689253 300.09179522 -180 269 C-179.77586426 268.01692871 -179.55172852 267.03385742 -179.32080078 266.02099609 C-163.3718858 196.65390858 -130.91980052 127.15332733 -82.265625 74.4765625 C-80.36948239 72.40388248 -78.51576379 70.30632761 -76.671875 68.1875 C-66.6015186 56.65202234 -55.97913751 45.78539706 -44.64257812 35.49414062 C-43.19544153 34.17777975 -41.76077477 32.84773794 -40.328125 31.515625 C-33.54085814 25.26069279 -26.33109167 19.59379343 -19 14 C-18.19626953 13.38237793 -17.39253906 12.76475586 -16.56445312 12.12841797 C-13.98970799 10.15642827 -11.40303462 8.20118744 -8.8125 6.25 C-7.57318726 5.30024292 -7.57318726 5.30024292 -6.30883789 4.33129883 C-5.1446936 3.46347778 -5.1446936 3.46347778 -3.95703125 2.578125 C-3.26585205 2.05637695 -2.57467285 1.53462891 -1.86254883 0.99707031 C-1.24790771 0.66803711 -0.6332666 0.33900391 0 0 Z " fill="#EAB47B" transform="translate(1107,438)"/>
<path d="M0 0 C0.66 0 1.32 0 2 0 C25.32578973 42.22276928 42.57227881 85.35651609 52.49853516 132.64746094 C52.88830479 134.47600046 53.29175767 136.30162552 53.70068359 138.12597656 C55.53840863 146.42291766 56.97122013 154.70702208 58.125 163.125 C58.29386719 164.27742188 58.46273438 165.42984375 58.63671875 166.6171875 C66.76465129 225.24070097 62.06393679 289.5771855 44 346 C43.72800781 346.928125 43.45601562 347.85625 43.17578125 348.8125 C30.43591024 392.16264932 10.93040952 433.97422994 -15 471 C-15.48936035 471.70044434 -15.9787207 472.40088867 -16.48291016 473.12255859 C-22.44633205 481.61546683 -28.60514135 489.92494571 -35.125 498 C-35.66938721 498.67667725 -36.21377441 499.35335449 -36.7746582 500.05053711 C-37.28472412 500.67323486 -37.79479004 501.29593262 -38.3203125 501.9375 C-38.98957764 502.75541016 -38.98957764 502.75541016 -39.67236328 503.58984375 C-41 505 -41 505 -44 507 C-63.50713447 472.11243455 -80.37430009 435.43860032 -89.42431641 396.35253906 C-90.0390452 393.84044124 -90.74026922 391.36207408 -91.44921875 388.875 C-93.36667267 381.9132419 -94.68833867 374.84627832 -96 367.75 C-96.19509659 366.70385025 -96.19509659 366.70385025 -96.39413452 365.63656616 C-100.30295737 344.60140504 -103.14631315 323.57163729 -103.16796875 302.140625 C-103.17129715 300.9531366 -103.17462555 299.76564819 -103.17805481 298.54217529 C-103.18308375 296.04130435 -103.18546439 293.54042678 -103.18530273 291.03955078 C-103.18747044 287.30098758 -103.20561839 283.56272924 -103.22460938 279.82421875 C-103.4368365 189.38108928 -73.56898101 100.61809215 -4.46704102 5.88427734 C-3.41912952 4.53833278 -2.41332662 3.15917175 -1.43725586 1.76025391 C-0.96296143 1.17937012 -0.48866699 0.59848633 0 0 Z " fill="#96BEBE" transform="translate(1021,1020)"/>
<path d="M0 0 C0.66 0 1.32 0 2 0 C19.6784732 32.00037828 35.41174856 65.14728596 45 100.5625 C45.22026855 101.366875 45.44053711 102.17125 45.66748047 103 C47.12289077 108.6313277 47.12289077 108.6313277 46 112 C40.36972413 107.13434121 34.86353229 102.15462261 29.4375 97.0625 C28.72142578 96.39798828 28.00535156 95.73347656 27.26757812 95.04882812 C23.13212723 91.1692559 19.28397626 87.16722811 15.59692383 82.85961914 C13.34260982 80.23446858 10.9834883 77.71951071 8.625 75.1875 C0.83412611 66.73309205 -6.23663421 57.74029822 -13.3125 48.6875 C-13.91167236 47.92228027 -14.51084473 47.15706055 -15.12817383 46.36865234 C-16.76894711 44.25806428 -18.38506593 42.13037199 -20 40 C-20.4542334 39.43877441 -20.9084668 38.87754883 -21.37646484 38.29931641 C-22.54296875 36.76953125 -22.54296875 36.76953125 -24 34 C-23.19699191 29.17407881 -19.30547871 25.12500683 -16.375 21.3125 C-15.83955566 20.60714111 -15.30411133 19.90178223 -14.75244141 19.17504883 C-11.08472403 14.36123855 -7.34918758 9.60733752 -3.5234375 4.91796875 C-1.85268881 2.86911812 -1.85268881 2.86911812 0 0 Z " fill="#94B7AB" transform="translate(1021,1020)"/>
<path d="M0 0 C5.07152512 3.1123707 9.08443917 6.79237183 13.26953125 11.00390625 C13.94996994 11.68243149 14.63040863 12.36095673 15.33146667 13.06004333 C16.76681276 14.49403304 18.19965475 15.93053309 19.63012695 17.36938477 C21.78838083 19.53826211 23.95698227 21.69636878 26.12695312 23.85351562 C32.86278621 30.58324004 39.3895624 37.30469843 45.27075195 44.80541992 C46.89722399 46.86956748 48.59799259 48.81524041 50.375 50.75 C53.78377893 54.61920642 56.90418283 58.69192134 60 62.8125 C60.5057959 63.4715332 61.0115918 64.13056641 61.53271484 64.80957031 C62.77076398 66.48181882 63.89555629 68.23665521 65 70 C63.89273731 73.32178808 63.23728718 73.85615898 60.53515625 75.890625 C59.82182129 76.43251465 59.10848633 76.9744043 58.37353516 77.53271484 C57.61089355 78.09941895 56.84825195 78.66612305 56.0625 79.25 C54.90693604 80.1174585 54.90693604 80.1174585 53.72802734 81.00244141 C51.49091836 82.67592856 49.24574786 84.33813621 47 86 C45.91782213 86.8149095 44.83576939 87.62998522 43.75390625 88.4453125 C42.88636719 89.08210937 42.01882813 89.71890625 41.125 90.375 C40.38507812 90.91898438 39.64515625 91.46296875 38.8828125 92.0234375 C38.26148438 92.34570312 37.64015625 92.66796875 37 93 C34 92 34 92 32.82421875 90.20361328 C32.44910156 89.41712402 32.07398438 88.63063477 31.6875 87.8203125 C31.25735596 86.92505859 30.82721191 86.02980469 30.3840332 85.10742188 C29.92730225 84.12322266 29.47057129 83.13902344 29 82.125 C28.51942139 81.10212891 28.03884277 80.07925781 27.54370117 79.02539062 C0 19.62742369 0 19.62742369 0 0 Z " fill="#AAAF72" transform="translate(932,911)"/>
<path d="M0 0 C4.02030661 3.60968147 6.75557955 7.88693529 9.6875 12.375 C10.46891357 13.5674231 10.46891357 13.5674231 11.26611328 14.78393555 C12.3293042 16.40732504 13.3911579 18.03159111 14.45166016 19.65673828 C15.89014201 21.83374062 17.3633093 23.980671 18.85546875 26.12109375 C19.69533477 27.3515473 20.53517984 28.58201515 21.375 29.8125 C22.12523437 30.89144531 22.87546875 31.97039063 23.6484375 33.08203125 C25 36 25 36 24.49609375 38.5625 C22.77560254 41.36559795 20.86416483 43.71871322 18.6875 46.1875 C11.90488053 54.04213666 5.99014076 62.53634666 0 71 C-12.09104853 56.27090451 -21.65288715 39.07004357 -30 22 C-29.3915625 21.64550781 -28.783125 21.29101562 -28.15625 20.92578125 C-19.69442416 15.78646644 -12.21213088 9.655474 -4.63476562 3.30932617 C-3.15309341 2.12261648 -1.5795007 1.05300047 0 0 Z " fill="#AEBF81" transform="translate(997,982)"/>
</svg>
